<?xml version="1.0" encoding="UTF-8"?><svg id="Layer_1" xmlns="http://www.w3.org/2000/svg" xmlns:xlink="http://www.w3.org/1999/xlink" viewBox="0 0 1692.18 1685.98"><defs><style>.cls-1{fill:url(#linear-gradient-15);}.cls-2{fill:url(#linear-gradient-13);}.cls-3{fill:url(#linear-gradient-2);}.cls-4{fill:url(#linear-gradient-10);}.cls-5{fill:url(#linear-gradient-12);}.cls-6{fill:url(#linear-gradient-4);}.cls-7{fill:#e2e2e2;}.cls-8{fill:#cc4848;}.cls-9{fill:url(#linear-gradient-3);}.cls-10{fill:url(#linear-gradient-5);}.cls-11{fill:url(#linear-gradient-8);}.cls-12{fill:url(#linear-gradient-14);}.cls-13{fill:url(#linear-gradient-20);}.cls-14{fill:url(#linear-gradient-17);}.cls-15{fill:url(#linear-gradient-7);}.cls-16{fill:url(#linear-gradient-9);}.cls-17{fill:url(#linear-gradient-11);}.cls-18{fill:url(#linear-gradient-19);}.cls-19{fill:url(#linear-gradient-6);}.cls-20{fill:url(#linear-gradient-16);}.cls-21{fill:url(#linear-gradient);}.cls-22{fill:url(#linear-gradient-18);}</style><linearGradient id="linear-gradient" x1="843.3" y1="0" x2="843.3" y2="821.28" gradientUnits="userSpaceOnUse"><stop offset="0" stop-color="#cc4848"/><stop offset=".09" stop-color="#b13e3e"/><stop offset=".33" stop-color="#722828"/><stop offset=".55" stop-color="#411717"/><stop offset=".74" stop-color="#1d0a0a"/><stop offset=".9" stop-color="#070202"/><stop offset="1" stop-color="#000"/></linearGradient><linearGradient id="linear-gradient-2" x1="163.67" y1="669.81" x2="671.97" y2="669.81" gradientUnits="userSpaceOnUse"><stop offset="0" stop-color="#cc4848"/><stop offset=".09" stop-color="#b13e3e"/><stop offset=".33" stop-color="#722828"/><stop offset=".55" stop-color="#411717"/><stop offset=".74" stop-color="#1d0a0a"/><stop offset=".9" stop-color="#070202"/><stop offset="1" stop-color="#000"/></linearGradient><linearGradient id="linear-gradient-3" x1="1142.91" y1="1663.75" x2="996.19" y2="831.65" gradientUnits="userSpaceOnUse"><stop offset="0" stop-color="#cc4848"/><stop offset="1" stop-color="#000"/></linearGradient><linearGradient id="linear-gradient-4" x1="0" y1="1002.92" x2="845.41" y2="1002.92" gradientUnits="userSpaceOnUse"><stop offset="0" stop-color="#cc4848"/><stop offset="1" stop-color="#000"/></linearGradient><linearGradient id="linear-gradient-5" x1="392" y1="1329.48" x2="1053.71" y2="1329.48" gradientUnits="userSpaceOnUse"><stop offset="0" stop-color="#cc4848"/><stop offset="1" stop-color="#000"/></linearGradient><linearGradient id="linear-gradient-6" x1="1692.18" y1="916.92" x2="1143.09" y2="916.92" gradientUnits="userSpaceOnUse"><stop offset="0" stop-color="#cc4848"/><stop offset=".13" stop-color="#c74646"/><stop offset=".27" stop-color="#ba4141"/><stop offset=".41" stop-color="#a43939"/><stop offset=".56" stop-color="#852e2e"/><stop offset=".72" stop-color="#5d2020"/><stop offset=".87" stop-color="#2d0f0f"/><stop offset="1" stop-color="#000"/></linearGradient><linearGradient id="linear-gradient-7" x1="845.13" y1="350.55" x2="845.13" y2="839.46" gradientUnits="userSpaceOnUse"><stop offset="0" stop-color="#cc4848"/><stop offset=".09" stop-color="#b13e3e"/><stop offset=".33" stop-color="#722828"/><stop offset=".55" stop-color="#411717"/><stop offset=".74" stop-color="#1d0a0a"/><stop offset=".9" stop-color="#070202"/><stop offset="1" stop-color="#000"/></linearGradient><linearGradient id="linear-gradient-8" x1="1546.98" y1="369.18" x2="1195.45" y2="572.14" gradientUnits="userSpaceOnUse"><stop offset="0" stop-color="#cc4848"/><stop offset=".17" stop-color="#c84646"/><stop offset=".31" stop-color="#be4343"/><stop offset=".45" stop-color="#ac3d3d"/><stop offset=".57" stop-color="#943434"/><stop offset=".69" stop-color="#742929"/><stop offset=".81" stop-color="#4e1b1b"/><stop offset=".93" stop-color="#210b0b"/><stop offset="1" stop-color="#000"/></linearGradient><linearGradient id="linear-gradient-9" x1="844.21" y1="697.17" x2="844.21" y2="1029.05" gradientUnits="userSpaceOnUse"><stop offset="0" stop-color="#cc4848"/><stop offset="1" stop-color="#000"/></linearGradient><linearGradient id="linear-gradient-10" x1="415.6" y1="1117.83" x2="785.84" y2="904.07" gradientUnits="userSpaceOnUse"><stop offset="0" stop-color="#cc4848"/><stop offset=".09" stop-color="#b13e3e"/><stop offset=".33" stop-color="#722828"/><stop offset=".55" stop-color="#411717"/><stop offset=".74" stop-color="#1d0a0a"/><stop offset=".9" stop-color="#070202"/><stop offset="1" stop-color="#000"/></linearGradient><linearGradient id="linear-gradient-11" x1="437.19" y1="772.69" x2="719.15" y2="772.69" gradientUnits="userSpaceOnUse"><stop offset="0" stop-color="#cc4848"/><stop offset=".09" stop-color="#b13e3e"/><stop offset=".33" stop-color="#722828"/><stop offset=".55" stop-color="#411717"/><stop offset=".74" stop-color="#1d0a0a"/><stop offset=".9" stop-color="#070202"/><stop offset="1" stop-color="#000"/></linearGradient><linearGradient id="linear-gradient-12" x1="680.41" y1="1370.12" x2="937.47" y2="924.89" gradientUnits="userSpaceOnUse"><stop offset="0" stop-color="#cc4848"/><stop offset=".09" stop-color="#b13e3e"/><stop offset=".33" stop-color="#722828"/><stop offset=".55" stop-color="#411717"/><stop offset=".74" stop-color="#1d0a0a"/><stop offset=".9" stop-color="#070202"/><stop offset="1" stop-color="#000"/></linearGradient><linearGradient id="linear-gradient-13" x1="1185.27" y1="1222.39" x2="923.08" y2="960.2" gradientUnits="userSpaceOnUse"><stop offset="0" stop-color="#cc4848"/><stop offset=".09" stop-color="#b13e3e"/><stop offset=".33" stop-color="#722828"/><stop offset=".55" stop-color="#411717"/><stop offset=".74" stop-color="#1d0a0a"/><stop offset=".9" stop-color="#070202"/><stop offset="1" stop-color="#000"/></linearGradient><linearGradient id="linear-gradient-14" x1="1359.08" y1="966.86" x2="1075.17" y2="802.94" gradientUnits="userSpaceOnUse"><stop offset="0" stop-color="#cc4848"/><stop offset=".09" stop-color="#b13e3e"/><stop offset=".33" stop-color="#722828"/><stop offset=".55" stop-color="#411717"/><stop offset=".74" stop-color="#1d0a0a"/><stop offset=".9" stop-color="#070202"/><stop offset="1" stop-color="#000"/></linearGradient><linearGradient id="linear-gradient-15" x1="673.26" y1="936.74" x2="791.89" y2="936.74" gradientUnits="userSpaceOnUse"><stop offset="0" stop-color="#cc4848"/><stop offset=".29" stop-color="#c94747"/><stop offset=".43" stop-color="#c14444"/><stop offset=".55" stop-color="#b43f3f"/><stop offset=".65" stop-color="#a13939"/><stop offset=".73" stop-color="#893030"/><stop offset=".81" stop-color="#6a2525"/><stop offset=".89" stop-color="#461919"/><stop offset=".96" stop-color="#1e0a0a"/><stop offset="1" stop-color="#000"/></linearGradient><linearGradient id="linear-gradient-16" x1="1251.92" y1="550.2" x2="1174.88" y2="594.68" gradientUnits="userSpaceOnUse"><stop offset="0" stop-color="#cc4848"/><stop offset=".17" stop-color="#c84646"/><stop offset=".31" stop-color="#be4343"/><stop offset=".45" stop-color="#ac3d3d"/><stop offset=".57" stop-color="#943434"/><stop offset=".69" stop-color="#742929"/><stop offset=".81" stop-color="#4e1b1b"/><stop offset=".93" stop-color="#210b0b"/><stop offset="1" stop-color="#000"/></linearGradient><linearGradient id="linear-gradient-17" x1="890.08" y1="969.79" x2="993.56" y2="969.79" gradientUnits="userSpaceOnUse"><stop offset="0" stop-color="#cc4848"/><stop offset="1" stop-color="#000"/></linearGradient><linearGradient id="linear-gradient-18" x1="743.42" y1="1018.31" x2="836.55" y2="1018.31" gradientUnits="userSpaceOnUse"><stop offset="0" stop-color="#cc4848"/><stop offset=".13" stop-color="#c74646"/><stop offset=".27" stop-color="#ba4141"/><stop offset=".42" stop-color="#a53a3a"/><stop offset=".56" stop-color="#872f2f"/><stop offset=".71" stop-color="#602222"/><stop offset=".86" stop-color="#321111"/><stop offset="1" stop-color="#000"/></linearGradient><linearGradient id="linear-gradient-19" x1="907.92" y1="948.16" x2="968.6" y2="948.16" gradientUnits="userSpaceOnUse"><stop offset="0" stop-color="#cc4848"/><stop offset=".19" stop-color="#923333"/><stop offset=".39" stop-color="#5e2121"/><stop offset=".58" stop-color="#351212"/><stop offset=".75" stop-color="#180808"/><stop offset=".89" stop-color="#060202"/><stop offset="1" stop-color="#000"/></linearGradient><linearGradient id="linear-gradient-20" x1="798.23" y1="1012.59" x2="910.47" y2="1012.59" gradientUnits="userSpaceOnUse"><stop offset="0" stop-color="#cc4848"/><stop offset=".04" stop-color="#b43f3f"/><stop offset=".11" stop-color="#8a3030"/><stop offset=".19" stop-color="#652323"/><stop offset=".28" stop-color="#451818"/><stop offset=".37" stop-color="#2c0f0f"/><stop offset=".48" stop-color="#180808"/><stop offset=".59" stop-color="#0a0303"/><stop offset=".74" stop-color="#020000"/><stop offset="1" stop-color="#000"/></linearGradient></defs><path class="cls-21" d="M1057.13,816.16c31.19-68.41,3.42-154.46-26.56-218.92-44.46-95.58-115.92-182.36-187.2-258.98-6.96-1.42-28.7,25.34-34.29,31.54-44.54,49.42-89.35,110.45-122.8,167.98-47.88,82.39-94.37,188.58-56.39,283.5-25.51-24.48-53.34-48.18-73.71-77.4-114.09-163.68,30.58-415.18,128.81-554.29C732.06,122.93,784.71,60.18,839.7,0c40.36,42.27,79.15,86.13,115.35,132.04,109.42,138.77,278.07,396.41,195.01,577.47-19.97,43.53-57.79,75.74-92.92,106.66h0Z"/><path class="cls-3" d="M428.69,539.72c-4.84,4.22,7.3,62.51,9.23,72.44,23.1,118.59,81.99,310.71,191.58,375.94,13.61,8.1,27.89,13.47,42.47,19.36-52.7,8.65-101.66,15.43-154.01.35-163.04-46.95-256.97-279.95-300.63-427.58-24.02-81.22-42.01-164.82-53.66-248.76,139.31-14.37,281.02-10.89,419.07,12.16l-43.42,102.05-23.5,87.45-87.13,6.6h0Z"/><path class="cls-9" d="M1226.74,1648.97c-131.98-48.78-259.64-111.88-373.65-194.51,52.63-41.37,103.06-86.07,142.86-140.31l77.48,31.07c1.95.76,3.18-.06,4.82-.96,6.15-3.4,25.2-81.01,27.99-93.18,26.19-113.85,51.03-290.42-14.16-393.98l-29.85-37.09c44.8,11.88,90.28,26.77,126.84,56.15,134.97,108.51,121.23,353.92,98.47,507.76-13.29,89.85-35.93,177.94-60.82,265.05h0Z"/><path class="cls-6" d="M845.41,1089.1c-23.19,42.95-48.46,86.67-88.1,116.57-181.07,136.59-534.74-17.21-710.26-112.08-5.74-3.11-46.61-24.29-47.04-26.98,76.88-117.49,166.7-227.57,272.16-320.55,28.23,60.62,60.64,120.14,105.07,170.51.9,4.98-46.06,59.94-48.08,70.22-1.47,7.46,8.29,10.7,13.41,14.05,42.1,27.55,105.84,55.52,153.1,73.91,104.85,40.78,248.2,82.85,349.74,14.35Z"/><path class="cls-10" d="M471.81,1652.74c-41.75-133.51-73.7-271.39-79.81-411.95,65.15,13.67,131.69,27.78,198.81,23.12l24.47,81.47,3.83,2.6c7.39,1.78,74.71-29.07,86.47-34.6,104.23-49.05,270.32-147.41,304.37-264.42l8.25-42.73c14.41,37.73,32.83,79.59,35.14,120.46,12.27,217.25-285.56,391.42-454.04,471.95-41.54,19.86-84.03,38.89-127.5,54.11h0Z"/><path class="cls-19" d="M1307.11,1228.1c1.44-67.48-2.68-135.49-20.52-200.7l74.08-40.95c1.79-1.7,1.49-4.08,1.24-6.28-.68-5.95-36.49-53.45-42.84-61.82-50.68-66.95-109.79-129.45-175.9-181.29l-.08-3.79c22.94-38.15,34.14-83.02,33.94-127.52,67.43,14.98,128.22,50.04,183.5,90.05,132.08,95.59,237.13,228.35,331.66,359.63-119.03,74.81-249.66,133.53-385.07,172.66v.02Z"/><path class="cls-15" d="M1023.99,848.06c-7.32-63.17-47.65-120.39-106.29-145.6-114.86-49.37-242.01,26.99-252.1,150.7-66.67-64.32-38.05-170.08-5.3-244.44,42.51-96.53,110.23-179.92,179.52-258.14,2.79-.32,3.92,1.75,5.67,3.24,15.35,13.22,40.91,46.82,54.74,63.86,68.97,84.94,171.5,230.94,164.53,344.27-2.19,35.65-13.58,62.78-40.77,86.11h0Z"/><path class="cls-11" d="M1520.09,322.62c-18.1,139.78-51.3,278.52-106.49,408.11-51.4-43.01-106.94-81.99-168.78-108.6l13.23-85.24c-3.62-8.85-76.66-5.87-88.08-8.89-12.77-65.25-38.91-126.97-69.46-185.57,137.52-28.76,279.82-27.8,419.6-19.8h0Z"/><path class="cls-16" d="M826.05,697.96c80.65-7.47,156.95,38.59,180.7,116.94,3.53,11.64,11.46,38.55,5.13,48.48l-167.28,165.66c-41.13-39.44-83.26-78.18-123.56-118.47-8.91-8.91-45.27-42.15-46.54-51.65-3.08-23.03,16.35-66.49,28.83-86,26.03-40.69,74.31-70.48,122.71-74.97h0Z"/><path class="cls-4" d="M868.38,1047.02c-52.31,86.69-175,73.82-259.93,53.96-94.27-22.04-184.52-65.74-268.03-113.36l45.26-61.73c58.66,65.05,128.91,100.16,218.12,95.66,30.39-1.53,97.7-18.27,122.44-14.12,5.31.89,24.54,16.3,32.01,20.27,33.66,17.84,72.28,24.35,110.13,19.32h0Z"/><path class="cls-17" d="M513.83,544.54c-13.74,81.47.67,159.48,54.2,223.19,12.95,15.41,93.44,88.68,95.66,95.7,1.7,5.35.79,24.75,2.3,33.36,7.22,41.17,25.69,72.42,53.17,103.04-29.95,4.13-57.59-4.6-83.27-19.37-106.12-61.05-163.97-249.52-186.69-362.98-1.93-9.65-12.99-62.01-11.94-67.16,1.19-5.81,67.9-4.5,76.57-5.76h0Z"/><path class="cls-5" d="M1001.01,961.58c32,108.69-71.68,202.79-151.36,258.65-69.56,48.76-147.35,85.81-226.16,117.03l-20.38-73.43c59.07-4.57,118.84-22.05,165.11-60,49.99-40.99,73.92-105.1,111.56-156.27,38.79-10.76,72.61-28.15,99.58-58.55,7.75-8.73,13.01-19.79,21.64-27.45h0Z"/><path class="cls-2" d="M1073.7,1333.96l-70.04-30.1c43.35-65.74,66.65-137.76,48.54-216.84-6.78-29.58-46.97-116.83-45.9-136.34.32-5.88,13.55-34.36,15.79-46.47,2.83-15.27,3.6-29.48,3.43-45.03l28.6-30.03c49.85,40.35,66.2,117.27,69.36,178.92,5.64,110.02-19.68,221.2-49.79,325.89h0Z"/><path class="cls-12" d="M1350.4,981.9l-67.52,34.51c-19.66-70.74-64.32-137.15-131.12-170.52l-83.14-31.61,68.81-68.93c83.92,65.29,155.95,147.51,212.96,236.55h0Z"/><path class="cls-7" d="M788.03,48.44l-28.99,35.4c-181.05,19.88-352.32,104.05-478.62,234.3l-45.88,1.93C374.09,161.78,576.7,62.75,788.03,48.44Z"/><path class="cls-7" d="M1448.65,313.69l-45.87-1.94c-127.12-128.29-298.85-211.26-479.65-228.17l-30.52-35.15c211.12,10.87,415.85,108.12,556.04,265.24h0Z"/><path class="cls-7" d="M1653.97,993.44l-27.8-36.61c21.19-180.14-22.08-364.79-119.72-516.42l9.17-43.78c121.65,169.97,171.99,389.62,138.35,596.82h0Z"/><path class="cls-7" d="M38.12,1002.36C-.03,796.16,49.82,575.36,168.86,404.27c2.25.33,9.69,41.31,9.03,44.61-1.2,6.01-24.55,41.35-29.46,50.99-73.69,144.68-103.93,302.28-84.87,464.81l-25.44,37.69h0Z"/><path class="cls-7" d="M1252.26,1576.27l11.84-44.27c150.94-94.4,267.19-241.67,324.99-410.22l40.64-22.47c-57.26,199.83-196,375.97-377.48,476.97h0Z"/><path class="cls-7" d="M444.96,1581.37c-182.04-100.52-322.58-273.65-382.59-473.14l40.63,21.21c54.14,152.6,152.43,279.16,281.62,375.18,8.81,6.55,43.42,26.6,47.53,31.53,5.21,6.26,8.26,36.13,12.79,45.22h0Z"/><path class="cls-7" d="M1151.5,1624.76c.74,3.29-.75,2-1.81,2.66-10.01,6.39-43.26,16.19-56.19,20.29-177.26,56.19-375.14,50.87-547.8-18.51l42.71-18.59c167.38,57.67,353.64,56.43,520.43-2.52l42.65,16.67h0Z"/><path class="cls-1" d="M673.26,876.13l118.63,116.71-56.85,4.51c-38.05-25.47-57.3-76.91-61.77-121.21h0Z"/><polygon class="cls-20" points="1234.39 617.22 1177.61 599.41 1173.18 538.76 1247.88 543.2 1234.39 617.22"/><path class="cls-14" d="M981.87,905.45c5.95,26.36,20.42,34.18,4.35,59.81-19.63,31.32-61.42,58.13-96.14,68.99l30.59-50.38c13.9-3.66,37.57-1.83,50.33-5.78,17.21-5.34-.12-52.71,1.94-64.27.43-2.42,7.09-9.55,8.93-8.38Z"/><path class="cls-22" d="M836.5,1034.26c.95,2.72-10.21,2.63-10.77,2.58-7.81-.59-19.56-3.34-27.49-5.13-20.11-4.54-38.27-12.55-54.81-24.87l55.51-7.08c7.58,1.31,29.78,28.7,37.56,34.5Z"/><polygon class="cls-18" points="907.92 976.85 966.57 919.48 968.6 968.03 907.92 976.85"/><path class="cls-13" d="M836.5,1034.26c10.45,7.78,16.22-.25,24.91-7.61,8.69-7.36,38.52-48.71,49.07-40.83-9.37,10.11-24.89,44.92-35.69,50.38-17.18,8.7-58.38,2.02-76.54-4.48,7.93,1.79,19.68,4.55,27.49,5.13.56.04,11.72.14,10.77-2.58h0Z"/><path class="cls-8" d="M1015.03,871.02c-.23,22.2-3.7,44.93-13.38,65.01l-13.19-38.56,26.56-26.45Z"/></svg>